# xmcd
#
# Track frame offsets:
#	150
#	13840
#	27300
#	44995
#	67980
#	79690
#	98995
#	120585
#	130795
#	143310
#	168760
#	176775
#	186075
#
# Disc length: 2803 seconds
#
# Revision: 0
# Processed by: cddbd v1.5.1PL2 Copyright (c) Steve Scherf et al.
# Submitted via: EasyCDDAExtractor 8.0.2.1
#
DISCID=aa0af10d
DTITLE=Alice Cooper - Johanneshovs Isstadion Stockholm 09-11-02 Disc 2
DYEAR=2002
DGENRE=Hard Rock
TTITLE0=Is It My Body 
TTITLE1=Fantasy Man 
TTITLE2=Trash
TTITLE3=Lost In America 
TTITLE4=I Never Cry 
TTITLE5=Only Women Bleed 
TTITLE6=Poison
TTITLE7=Band Intro
TTITLE8=Under My Wheels 
TTITLE9=School's Out 
TTITLE10=Elected 
TTITLE11=He's Back (The Man Behind The Mask)
TTITLE12=Department Of Youth
EXTD=
EXTT0=
EXTT1=
EXTT2=
EXTT3=
EXTT4=
EXTT5=
EXTT6=
EXTT7=
EXTT8=
EXTT9=
EXTT10=
EXTT11=
EXTT12=
PLAYORDER=
